<svg width="42" height="42" viewBox="0 0 42 42" fill="none" xmlns="http://www.w3.org/2000/svg">
<path d="M34.9703 42H7.02966C3.15 42 0 38.85 0 34.9703V7.02966C0 3.15 3.15 0 7.02966 0H34.9703C38.85 0 42 3.15 42 7.02966V34.9703C42 38.85 38.85 42 34.9703 42ZM7.02966 0.676271C3.52373 0.676271 0.676271 3.52373 0.676271 7.02966V34.9703C0.676271 38.4763 3.52373 41.3237 7.02966 41.3237H34.9703C38.4763 41.3237 41.3237 38.4763 41.3237 34.9703V7.02966C41.3237 3.52373 38.4763 0.676271 34.9703 0.676271H7.02966Z" fill="black"/>
<path d="M36.6787 36.6789H5.32104V5.32129H36.6965V36.6789H36.6787ZM5.97952 36.0204H36.0024V5.99756H5.97952V36.0204Z" fill="black"/>
<path d="M10.3755 13.5255C8.9874 13.5255 7.86621 12.4043 7.86621 11.0162C7.86621 9.62802 8.9874 8.50684 10.3755 8.50684C11.7637 8.50684 12.8849 9.62802 12.8849 11.0162C12.8849 12.4043 11.7637 13.5255 10.3755 13.5255ZM10.3755 9.16531C9.36113 9.16531 8.54248 9.98396 8.54248 10.9984C8.54248 12.0128 9.36113 12.8314 10.3755 12.8314C11.3899 12.8314 12.2086 12.0128 12.2086 10.9984C12.2086 10.0018 11.3899 9.16531 10.3755 9.16531ZM23.2959 32.7814H9.27214C8.70265 32.7814 8.25774 32.3187 8.25774 31.767C8.25774 31.1975 8.72045 30.7526 9.27214 30.7526H23.2959C23.8654 30.7526 24.3103 31.2153 24.3103 31.767C24.3281 32.3365 23.8654 32.7814 23.2959 32.7814ZM9.27214 31.4111C9.07638 31.4111 8.91621 31.5712 8.91621 31.767C8.91621 31.9628 9.07638 32.1229 9.27214 32.1229H23.2959C23.4916 32.1229 23.6518 31.9628 23.6518 31.767C23.6518 31.5712 23.4916 31.4111 23.2959 31.4111H9.27214ZM29.3823 32.7814C28.3501 32.7814 27.5137 31.945 27.5137 30.9128C27.5137 29.8806 28.3501 29.0441 29.3823 29.0441C30.4145 29.0441 31.251 29.8806 31.251 30.9128C31.2688 31.945 30.4323 32.7814 29.3823 32.7814ZM29.3823 29.7026C28.7238 29.7026 28.1721 30.2365 28.1721 30.9128C28.1721 31.5712 28.706 32.1229 29.3823 32.1229C30.0408 32.1229 30.5925 31.589 30.5925 30.9128C30.5925 30.2365 30.0586 29.7026 29.3823 29.7026Z" fill="black"/>
<path d="M19.1059 18.2507H17.8729C17.8 17.8961 17.6724 17.5845 17.4901 17.3161C17.3111 17.0476 17.0924 16.8222 16.8339 16.6399C16.5787 16.4543 16.2953 16.3151 15.9837 16.2223C15.6722 16.1295 15.3474 16.0831 15.0093 16.0831C14.3928 16.0831 13.8343 16.2389 13.3339 16.5504C12.8367 16.862 12.4406 17.321 12.1457 17.9276C11.854 18.5341 11.7082 19.2782 11.7082 20.1598C11.7082 21.0415 11.854 21.7855 12.1457 22.3921C12.4406 22.9986 12.8367 23.4576 13.3339 23.7692C13.8343 24.0808 14.3928 24.2365 15.0093 24.2365C15.3474 24.2365 15.6722 24.1901 15.9837 24.0973C16.2953 24.0045 16.5787 23.867 16.8339 23.6847C17.0924 23.4991 17.3111 23.272 17.4901 23.0036C17.6724 22.7318 17.8 22.4202 17.8729 22.0689H19.1059C19.0131 22.5893 18.8441 23.0549 18.5988 23.4659C18.3535 23.8769 18.0486 24.2266 17.684 24.5149C17.3194 24.8 16.9101 25.0171 16.456 25.1662C16.0053 25.3154 15.523 25.3899 15.0093 25.3899C14.1409 25.3899 13.3687 25.1778 12.6925 24.7536C12.0164 24.3293 11.4844 23.7261 11.0967 22.9439C10.7089 22.1617 10.515 21.2337 10.515 20.1598C10.515 19.086 10.7089 18.1579 11.0967 17.3757C11.4844 16.5935 12.0164 15.9903 12.6925 15.5661C13.3687 15.1418 14.1409 14.9297 15.0093 14.9297C15.523 14.9297 16.0053 15.0043 16.456 15.1534C16.9101 15.3026 17.3194 15.5213 17.684 15.8097C18.0486 16.0947 18.3535 16.4427 18.5988 16.8537C18.8441 17.2614 19.0131 17.7271 19.1059 18.2507ZM21.0983 15.0689H22.5698L26.0301 23.5206H26.1494L29.6096 15.0689H31.0812V25.2507H29.9278V17.5149H29.8284L26.6465 25.2507H25.5329L22.3511 17.5149H22.2517V25.2507H21.0983V15.0689Z" fill="black"/>
</svg>
