<svg width="43" height="42" viewBox="0 0 43 42" fill="none" xmlns="http://www.w3.org/2000/svg">
<path d="M35.2128 42H7.27209C3.39243 42 0.242432 38.85 0.242432 34.9703V7.02966C0.242432 3.15 3.39243 0 7.27209 0H35.2128C39.0924 0 42.2424 3.15 42.2424 7.02966V34.9703C42.2424 38.85 39.0924 42 35.2128 42ZM7.27209 0.676271C3.76616 0.676271 0.918703 3.52373 0.918703 7.02966V34.9703C0.918703 38.4763 3.76616 41.3237 7.27209 41.3237H35.2128C38.7187 41.3237 41.5662 38.4763 41.5662 34.9703V7.02966C41.5662 3.52373 38.7187 0.676271 35.2128 0.676271H7.27209Z" fill="white"/>
<path d="M36.9211 36.6789H5.56348V5.32129H36.9389V36.6789H36.9211ZM6.22195 36.0204H36.2448V5.99756H6.22195V36.0204Z" fill="white"/>
<path d="M10.618 13.5255C9.22983 13.5255 8.10864 12.4043 8.10864 11.0162C8.10864 9.62802 9.22983 8.50684 10.618 8.50684C12.0061 8.50684 13.1273 9.62802 13.1273 11.0162C13.1273 12.4043 12.0061 13.5255 10.618 13.5255ZM10.618 9.16531C9.60356 9.16531 8.78491 9.98396 8.78491 10.9984C8.78491 12.0128 9.60356 12.8314 10.618 12.8314C11.6324 12.8314 12.451 12.0128 12.451 10.9984C12.451 10.0018 11.6324 9.16531 10.618 9.16531ZM23.5383 32.7814H9.51457C8.94508 32.7814 8.50017 32.3187 8.50017 31.767C8.50017 31.1975 8.96288 30.7526 9.51457 30.7526H23.5383C24.1078 30.7526 24.5527 31.2153 24.5527 31.767C24.5705 32.3365 24.1078 32.7814 23.5383 32.7814ZM9.51457 31.4111C9.31881 31.4111 9.15864 31.5712 9.15864 31.767C9.15864 31.9628 9.31881 32.1229 9.51457 32.1229H23.5383C23.7341 32.1229 23.8942 31.9628 23.8942 31.767C23.8942 31.5712 23.7341 31.4111 23.5383 31.4111H9.51457ZM29.6247 32.7814C28.5925 32.7814 27.7561 31.945 27.7561 30.9128C27.7561 29.8806 28.5925 29.0441 29.6247 29.0441C30.6569 29.0441 31.4934 29.8806 31.4934 30.9128C31.5112 31.945 30.6747 32.7814 29.6247 32.7814ZM29.6247 29.7026C28.9663 29.7026 28.4146 30.2365 28.4146 30.9128C28.4146 31.5712 28.9485 32.1229 29.6247 32.1229C30.2832 32.1229 30.8349 31.589 30.8349 30.9128C30.8349 30.2365 30.301 29.7026 29.6247 29.7026Z" fill="white"/>
<path d="M19.3483 18.2507H18.1154C18.0424 17.8961 17.9148 17.5845 17.7326 17.3161C17.5536 17.0476 17.3348 16.8222 17.0763 16.6399C16.8211 16.4543 16.5377 16.3151 16.2262 16.2223C15.9146 16.1295 15.5898 16.0831 15.2517 16.0831C14.6353 16.0831 14.0768 16.2389 13.5763 16.5504C13.0791 16.862 12.6831 17.321 12.3881 17.9276C12.0964 18.5341 11.9506 19.2782 11.9506 20.1598C11.9506 21.0415 12.0964 21.7855 12.3881 22.3921C12.6831 22.9986 13.0791 23.4576 13.5763 23.7692C14.0768 24.0808 14.6353 24.2365 15.2517 24.2365C15.5898 24.2365 15.9146 24.1901 16.2262 24.0973C16.5377 24.0045 16.8211 23.867 17.0763 23.6847C17.3348 23.4991 17.5536 23.272 17.7326 23.0036C17.9148 22.7318 18.0424 22.4202 18.1154 22.0689H19.3483C19.2555 22.5893 19.0865 23.0549 18.8412 23.4659C18.596 23.8769 18.291 24.2266 17.9264 24.5149C17.5619 24.8 17.1525 25.0171 16.6985 25.1662C16.2477 25.3154 15.7655 25.3899 15.2517 25.3899C14.3834 25.3899 13.6111 25.1778 12.935 24.7536C12.2588 24.3293 11.7269 23.7261 11.3391 22.9439C10.9513 22.1617 10.7574 21.2337 10.7574 20.1598C10.7574 19.086 10.9513 18.1579 11.3391 17.3757C11.7269 16.5935 12.2588 15.9903 12.935 15.5661C13.6111 15.1418 14.3834 14.9297 15.2517 14.9297C15.7655 14.9297 16.2477 15.0043 16.6985 15.1534C17.1525 15.3026 17.5619 15.5213 17.9264 15.8097C18.291 16.0947 18.596 16.4427 18.8412 16.8537C19.0865 17.2614 19.2555 17.7271 19.3483 18.2507ZM21.3407 15.0689H22.8123L26.2725 23.5206H26.3918L29.852 15.0689H31.3236V25.2507H30.1702V17.5149H30.0708L26.889 25.2507H25.7753L22.5935 17.5149H22.4941V25.2507H21.3407V15.0689Z" fill="white"/>
</svg>
